<svg id="Layer_1" xmlns="http://www.w3.org/2000/svg" viewBox="0 0 400 80.3"><style>.st0{fill:#8ebeed}.st1{fill:#036}</style><path id="XMLID_22_" class="st0" d="M80.2 0H0v80.3h400V0z"/><path id="XMLID_21_" class="st1" d="M79.4 9.9H81v60.2h-1.6z"/><path class="st1" d="M45.6 39.5c-1.4 1.5-3.2 2.2-5.4 2.2s-4-.7-5.5-2.2c-1.4-1.5-2.1-3.3-2.1-5.6 0-2.2.7-4.1 2.1-5.5 1.4-1.5 3.2-2.2 5.5-2.2s4 .8 5.4 2.3c1.4 1.5 2.1 3.4 2.1 5.6-.1 2.1-.7 3.9-2.1 5.4m-13 13c0-2.2.7-4.1 2.1-5.5 1.4-1.5 3.2-2.2 5.5-2.2 2.2 0 4 .8 5.4 2.3 1.4 1.5 2.1 3.4 2.1 5.6l-15.1-.2zm7.5-32.1c-10.9 0-19.8 8.9-19.8 19.8S29.2 60 40.1 60s19.8-8.9 19.8-19.8c0-11-8.9-19.8-19.8-19.8"/><path id="XMLID_17_" class="st1" d="M156 48.4v-16h10.1v2.2h-7.5v4.6h6.1v2.2h-6.1v4.7h7.5v2.3z"/><path id="XMLID_16_" class="st1" d="M168.9 48.4v-16h4.6l4.9 13.7h.3V32.4h2.6v16h-4.4l-5-13.8h-.4v13.8z"/><path id="XMLID_15_" class="st1" d="M183.5 34.7v-2.3h11.7v2.3h-4.5v13.7H188V34.7z"/><path class="st1" d="M206.2 37.5c0-1.9-.9-2.9-2.8-2.9h-3.5v5.8h3.5c.9 0 1.6-.3 2.1-.8s.7-1.2.7-2.1m-6.3 5.2v5.7h-2.6v-16h6.1c3.6 0 5.4 1.7 5.4 5.1 0 2.3-.9 3.8-2.6 4.6l2.6 6.3H206l-2.3-5.7h-3.8zM216.3 34.6l-2 8.1h5.1l-2-8.1h-1.1zm-6 13.8l4-16.1h5.2l4 16.1h-2.6L220 45h-6.2l-.9 3.4h-2.6z"/><path id="XMLID_10_" class="st1" d="M236.3 48.7c-2.3 0-3.9-.6-4.8-1.9-.8-1.3-1.3-3.4-1.3-6.4 0-3 .4-5.1 1.3-6.3.8-1.3 2.4-1.9 4.8-1.9 1.4 0 2.9.2 4.6.6l-.1 2.1c-1.4-.3-2.8-.4-4.2-.4-1.4 0-2.4.4-2.9 1.3-.5.8-.8 2.4-.8 4.7 0 2.3.2 3.9.7 4.7.5.8 1.4 1.3 2.8 1.3s2.8-.1 4.3-.4l.1 2.2c-1.6.2-3.1.4-4.5.4"/><path class="st1" d="M246.2 45c.5.9 1.5 1.4 3 1.4s2.5-.5 3-1.4c.5-.9.8-2.4.8-4.6 0-2.1-.3-3.7-.8-4.7s-1.5-1.5-3-1.5-2.5.5-3 1.5-.8 2.5-.8 4.6c0 2.3.3 3.8.8 4.7m8.1 1.7c-1 1.3-2.7 2-5.1 2-2.4 0-4.1-.7-5.1-2s-1.5-3.4-1.5-6.2c0-2.8.5-4.9 1.5-6.3 1-1.4 2.7-2.1 5.1-2.1 2.4 0 4.1.7 5.1 2.1 1 1.4 1.5 3.5 1.5 6.3s-.5 4.9-1.5 6.2"/><path id="XMLID_7_" class="st1" d="M258.8 48.4v-16h4.6l4.8 13.7h.4V32.4h2.6v16h-4.5l-5-13.8h-.3v13.8z"/><path id="XMLID_6_" class="st1" d="M284.8 34.4c-2 0-3 .7-3 2.1 0 .7.2 1.2.7 1.5.5.3 1.5.7 3.1 1.1 1.6.4 2.7 1 3.4 1.6.7.6 1 1.6 1 2.9 0 1.7-.5 3-1.4 3.8-1 .8-2.3 1.3-3.9 1.3-1.3 0-2.8-.2-4.4-.5l-.8-.2.3-2.1c2.1.3 3.7.4 4.8.4 1.9 0 2.9-.9 2.9-2.6 0-.7-.2-1.2-.7-1.5-.4-.3-1.4-.7-3-1.1-1.5-.4-2.7-.9-3.4-1.6-.8-.7-1.1-1.7-1.1-3.2 0-1.5.5-2.6 1.4-3.3.9-.7 2.3-1.1 3.9-1.1 1.2 0 2.6.1 4.3.4l.8.1-.2 2.1c-2.3 0-3.8-.1-4.7-.1"/><path class="st1" d="M295.4 41.2h3.3c1.9 0 2.8-1.1 2.8-3.4 0-1.1-.2-1.9-.7-2.4-.5-.5-1.2-.8-2.1-.8h-3.3v6.6zm3.3 2.2h-3.3v5h-2.6v-16h5.9c3.6 0 5.5 1.8 5.5 5.4 0 1.8-.5 3.3-1.4 4.2-1 1-2.3 1.4-4.1 1.4"/><path id="XMLID_3_" class="st1" d="M306.6 32.4h2.6v16.1h-2.6z"/><path class="st1" d="M322.2 40.1c0-1.9-.2-3.3-.7-4.2-.5-.9-1.5-1.3-3-1.3h-3v11.5h3c1.5 0 2.6-.6 3.1-1.7.2-.6.4-1.2.5-1.9.1-.6.1-1.4.1-2.4m-3.7 8.3h-5.6v-16h5.6c2.5 0 4.2.6 5.1 1.9.9 1.2 1.4 3.2 1.4 5.9 0 1.4-.1 2.5-.3 3.5-.2.9-.5 1.8-.9 2.6-1 1.4-2.7 2.1-5.3 2.1"/></svg>