<?xml version="1.0" encoding="utf-8"?>
<!-- Generator: Adobe Illustrator 19.0.0, SVG Export Plug-In . SVG Version: 6.00 Build 0)  -->
<svg version="1.1" id="Layer_2" xmlns="http://www.w3.org/2000/svg" xmlns:xlink="http://www.w3.org/1999/xlink" x="0px" y="0px"
	 viewBox="-212 237 88.5 128" style="enable-background:new -212 237 88.5 128;" xml:space="preserve">
<style type="text/css">
	.st0{fill:#FFFFFF;}
</style>
<g>
	<g>
		<g>
			<path class="st0" d="M-124.7,329.1l-23.6-25l23.3-19.7c1.7-1.5,2-4.1,0.6-6c-1.4-1.8-3.9-2.1-5.7-0.7l-37.7,31.9l-37.7-31.9
				c-1.7-1.5-4.3-1.2-5.7,0.7c-1.4,1.8-1.1,4.5,0.6,6l23.3,19.7l-23.6,25c-1.6,1.7-1.6,4.4,0,6c0.8,0.8,1.8,1.2,2.8,1.2
				c1,0,2.1-0.4,2.8-1.2l24.1-25.5c0-0.1,0.1-0.1,0.1-0.2l10.6,9c0.7,0.6,1.6,0.9,2.5,0.9s1.8-0.3,2.5-0.9l10.6-9
				c0,0.1,0.1,0.1,0.1,0.2l24.1,25.5c0.8,0.8,1.8,1.2,2.8,1.2c1,0,2.1-0.4,2.8-1.2C-123.1,333.4-123.1,330.7-124.7,329.1z"/>
		</g>
	</g>
	<path class="st0" d="M-140.1,237h-55.3c-9.2,0-16.6,14.3-16.6,32v64c0,17.7,7.4,32,16.6,32h55.3c9.2,0,16.6-14.3,16.6-32v-64
		C-123.5,251.3-130.9,237-140.1,237z M-129,333c0,11.8-5,21.3-11.1,21.3h-55.3c-6.1,0-11.1-9.6-11.1-21.3v-64
		c0-11.8,5-21.3,11.1-21.3h55.3c6.1,0,11.1,9.6,11.1,21.3V333z"/>
</g>
</svg>
