<?xml version="1.0" encoding="utf-8"?>
<!-- Generator: Adobe Illustrator 19.0.0, SVG Export Plug-In . SVG Version: 6.00 Build 0)  -->
<svg version="1.1" id="Layer_1" xmlns="http://www.w3.org/2000/svg" xmlns:xlink="http://www.w3.org/1999/xlink" x="0px" y="0px"
	 viewBox="-212 237 88.5 128" style="enable-background:new -212 237 88.5 128;" xml:space="preserve">
<style type="text/css">
	.st0{fill:#0066CC;}
</style>
<path class="st0" d="M-137.1,365h-61.3c-7.5,0-13.6-5-13.6-11.1V248.1c0-6.1,6.1-11.1,13.6-11.1h61.3c7.5,0,13.6,5,13.6,11.1v105.7
	C-123.5,360-129.6,365-137.1,365z M-130.3,248.1c0-3.1-3-5.6-6.8-5.6h-61.3c-3.8,0-6.8,2.5-6.8,5.6v11.1h74.9V248.1z M-130.3,264.8
	h-74.9v72.3h74.9V264.8z M-130.3,342.7h-74.9v11.1c0,3.1,3,5.6,6.8,5.6h61.3c3.8,0,6.8-2.5,6.8-5.6V342.7z M-167.8,356.7
	c-3.8,0-6.8-2.5-6.8-5.6c0-3.1,3-5.6,6.8-5.6s6.8,2.5,6.8,5.6C-160.9,354.2-164,356.7-167.8,356.7z M-191.6,273.2h6.8
	c1.9,0,3.4,1.2,3.4,2.8v5.6c0,1.5-1.5,2.8-3.4,2.8h-6.8c-1.9,0-3.4-1.2-3.4-2.8V276C-195,274.4-193.5,273.2-191.6,273.2z
	 M-191.6,292.7h6.8c1.9,0,3.4,1.2,3.4,2.8v5.6c0,1.5-1.5,2.8-3.4,2.8h-6.8c-1.9,0-3.4-1.2-3.4-2.8v-5.6
	C-195,293.9-193.5,292.7-191.6,292.7z M-191.6,312.1h6.8c1.9,0,3.4,1.2,3.4,2.8v5.6c0,1.5-1.5,2.8-3.4,2.8h-6.8
	c-1.9,0-3.4-1.2-3.4-2.8v-5.6C-195,313.4-193.5,312.1-191.6,312.1z M-171.2,273.2h6.8c1.9,0,3.4,1.2,3.4,2.8v5.6
	c0,1.5-1.5,2.8-3.4,2.8h-6.8c-1.9,0-3.4-1.2-3.4-2.8V276C-174.6,274.4-173,273.2-171.2,273.2z M-171.2,292.7h6.8
	c1.9,0,3.4,1.2,3.4,2.8v5.6c0,1.5-1.5,2.8-3.4,2.8h-6.8c-1.9,0-3.4-1.2-3.4-2.8v-5.6C-174.6,293.9-173,292.7-171.2,292.7z
	 M-171.2,312.1h6.8c1.9,0,3.4,1.2,3.4,2.8v5.6c0,1.5-1.5,2.8-3.4,2.8h-6.8c-1.9,0-3.4-1.2-3.4-2.8v-5.6
	C-174.6,313.4-173,312.1-171.2,312.1z M-150.7,273.2h6.8c1.9,0,3.4,1.2,3.4,2.8v5.6c0,1.5-1.5,2.8-3.4,2.8h-6.8
	c-1.9,0-3.4-1.2-3.4-2.8V276C-154.1,274.4-152.6,273.2-150.7,273.2z M-150.7,292.7h6.8c1.9,0,3.4,1.2,3.4,2.8v5.6
	c0,1.5-1.5,2.8-3.4,2.8h-6.8c-1.9,0-3.4-1.2-3.4-2.8v-5.6C-154.1,293.9-152.6,292.7-150.7,292.7z M-178,248.1h20.4
	c1.9,0,3.4,1.2,3.4,2.8c0,1.5-1.5,2.8-3.4,2.8H-178c-1.9,0-3.4-1.2-3.4-2.8C-181.4,249.4-179.8,248.1-178,248.1z"/>
</svg>
