<svg id="Layer_1" xmlns="http://www.w3.org/2000/svg" viewBox="0 0 283.8 178.1"><style>.st0{fill:#FFF}</style><path id="XMLID_85_" class="st0" d="M29.8 25c-6.3-.8-10.8-1.2-13.3-1.2s-4.2.2-4.9.7c-.7.5-1.1 1.2-1.1 2.2 0 1 .5 1.7 1.5 2.1 1 .4 3.6.9 7.7 1.7 4.1.7 7.1 2 8.8 3.6 1.7 1.7 2.6 4.4 2.6 8.2 0 8.3-5.1 12.4-15.4 12.4-3.4 0-7.5-.5-12.3-1.4l-2.5-.5.3-8.6c6.3.8 10.8 1.2 13.2 1.2 2.5 0 4.2-.2 5.1-.7.9-.5 1.3-1.2 1.3-2.2 0-1-.5-1.7-1.4-2.1-.9-.5-3.4-1-7.4-1.7s-6.9-1.8-8.9-3.4C1.2 33.7.2 30.9.2 26.8s1.4-7.1 4.1-9.2c2.8-2.1 6.3-3.1 10.7-3.1 3 0 7.1.5 12.4 1.5l2.5.5-.1 8.5z"/><path id="XMLID_82_" class="st0" d="M55.4 23.7c-1.9 0-3.8.4-5.8 1.2l-.9.4v20.1c2.3.3 4.2.5 5.6.5 3 0 5-.9 6.1-2.6 1.1-1.7 1.7-4.7 1.7-8.9 0-7.2-2.2-10.7-6.7-10.7M38.5 69.9V15.4h10.2v2.1c3.3-2 6.2-3 8.8-3 5.2 0 9 1.6 11.4 4.6 2.5 3.1 3.7 8.4 3.7 15.8s-1.4 12.6-4.1 15.5c-2.7 2.9-7.2 4.3-13.4 4.3-1.7 0-3.5-.2-5.5-.5l-.9-.2v15.8H38.5z"/><path id="XMLID_79_" class="st0" d="M131.6 44.5l1.1-.2V24.1c-2.8-.5-5.3-.8-7.5-.8-4.1 0-6.2 3.7-6.2 11.1 0 4 .5 6.8 1.4 8.5.9 1.7 2.4 2.5 4.6 2.5s4.3-.2 6.6-.9M143 0v53.8h-10.2v-1.6c-3.6 1.7-6.7 2.5-9.3 2.5-5.6 0-9.5-1.6-11.7-4.8-2.2-3.2-3.3-8.3-3.3-15.3s1.3-12.1 4-15.3c2.6-3.2 6.6-4.8 11.9-4.8 1.6 0 3.9.3 6.8.8l1.5.3V0H143z"/><path id="XMLID_78_" class="st0" d="M90.5 37.7c-3.2 0-5.8-1.1-7.8-3.2s-3.1-4.8-3.1-8 1-5.8 3.1-7.9c2-2.1 4.6-3.1 7.8-3.1s5.8 1.1 7.7 3.2c2 2.2 3 4.8 3 8s-1 5.8-3 7.9c-2 2-4.5 3.1-7.7 3.1"/><path id="XMLID_77_" class="st0" d="M79.6 53.2c0-3.2 1-5.8 3.1-7.9 2-2.1 4.6-3.1 7.8-3.1s5.8 1.1 7.7 3.2c2 2.2 3 4.8 3 8"/><path id="XMLID_76_" class="st0" d="M8.5 98.1c-4.1 0-6.2 1.6-6.2 4.7 0 1.8.5 3.1 1.4 3.7.9.6 2.8 1.2 5.5 1.8 2.7.5 4.7 1.3 5.8 2.2 1.2.9 1.7 2.5 1.7 4.8 0 2.9-.7 4.9-2.1 6.2s-3.5 1.9-6.2 1.9c-2 0-4.3-.2-6.9-.5l-1.4-.2.3-2c3.5.4 6.2.7 8.1.7 1.9 0 3.4-.5 4.4-1.4 1-.9 1.5-2.3 1.5-4.1 0-1.8-.4-3-1.3-3.7-.9-.7-2.3-1.2-4.2-1.5-1.9-.4-3.3-.7-4.2-1-.9-.3-1.7-.7-2.5-1.3-.8-.5-1.3-1.3-1.7-2.1-.3-.9-.5-1.9-.5-3.2 0-4.6 2.8-7 8.4-7 1.7 0 3.9.2 6.6.5l1.3.2-.2 2c-3.6-.5-6.1-.7-7.6-.7"/><path id="XMLID_73_" class="st0" d="M21.6 103.9h2.3v19.2h-2.3v-19.2zm0-7.7h2.3v2.9h-2.3v-2.9z"/><path id="XMLID_72_" class="st0" d="M35.4 105.6c-3 0-4.5 1.1-4.5 3.3 0 1 .3 1.7 1 2.1.7.4 2.2.8 4.5 1.2 2.3.4 4 .9 4.9 1.6s1.4 2 1.4 4-.6 3.4-1.9 4.3c-1.3.9-3.1 1.4-5.5 1.4-1.4 0-3.2-.2-5.4-.5l-1.1-.2.2-2c2.9.4 5.1.7 6.6.7s2.7-.3 3.6-.8c.9-.5 1.3-1.4 1.3-2.7 0-1.3-.4-2.1-1.1-2.5-.7-.4-2.2-.8-4.5-1.2-2.3-.4-3.9-.9-4.9-1.5s-1.4-1.9-1.4-3.8c0-1.8.7-3.2 2-4 1.3-.8 2.9-1.3 4.8-1.3 1.5 0 3.4.2 5.7.5l1 .2-.1 2c-2.7-.6-4.9-.8-6.6-.8"/><path id="XMLID_71_" class="st0" d="M57.1 105.9h-6.4v9.5c0 2.5.2 4.1.5 4.9.4.8 1.2 1.1 2.5 1.1l3.5-.3.2 2c-1.7.3-3 .4-3.9.4-1.9 0-3.3-.5-4-1.4-.8-1-1.1-2.8-1.1-5.5V106h-2.8v-2h2.8v-6h2.3v6h6.4v1.9z"/><path id="XMLID_68_" class="st0" d="M62.2 112.5H73c0-2.5-.4-4.3-1.2-5.4-.8-1.1-2.2-1.6-4-1.6-1.8 0-3.2.6-4.2 1.7s-1.4 2.9-1.4 5.3m11.1 8.7l1.1-.1.1 1.9c-2.9.4-5.3.5-7.3.5-2.8 0-4.7-.8-5.8-2.5-1.1-1.6-1.6-4.1-1.6-7.4 0-6.7 2.6-10 7.9-10 2.5 0 4.4.7 5.7 2.2 1.3 1.4 1.9 3.7 1.9 6.9l-.1 1.8h-13c0 2.4.4 4.1 1.2 5.2.8 1.1 2.2 1.7 4.1 1.7 2 0 3.9-.1 5.8-.2"/><path id="XMLID_67_" class="st0" d="M82.2 123.1H80v-19.2h2.3v1.4c1.9-1.2 4-1.8 6.2-1.8s3.8.7 4.7 2c.9-.6 2-1 3.4-1.4 1.3-.4 2.5-.6 3.5-.6 2.6 0 4.3.7 5.1 2 .9 1.3 1.3 3.8 1.3 7.5v10.1h-2.3v-10c0-2.9-.3-4.9-.8-6-.5-1-1.7-1.6-3.6-1.6-.9 0-1.9.1-2.8.4-1 .3-1.7.5-2.2.8l-.8.4c.4 1 .6 2.9.6 5.9v10h-2.3v-9.9c0-3-.3-5-.8-6-.6-1-1.7-1.6-3.5-1.6-.9 0-1.8.1-2.7.4-.9.3-1.6.5-2.1.8l-.7.4v16z"/><path id="XMLID_64_" class="st0" d="M113.1 117.6c0 2.6 1.1 3.9 3.2 3.9.9 0 1.9-.1 3-.3 1.1-.2 2-.4 2.6-.7l1-.3v-6.9l-6.2.7c-1.3.1-2.2.5-2.7 1.1-.6.5-.9 1.4-.9 2.5m12.1-8v10.3c.1.9.9 1.5 2.5 1.7l-.1 1.8c-2 0-3.4-.5-4.3-1.5-2.4 1-4.8 1.6-7.2 1.6-1.7 0-3-.5-3.9-1.5-.9-1-1.3-2.4-1.3-4.2 0-1.8.5-3.2 1.4-4.1.9-.9 2.3-1.4 4.3-1.6l6.5-.7v-1.8c0-1.4-.3-2.5-.9-3.1-.6-.6-1.5-.9-2.5-.9-1.6 0-3.8.2-6.4.5l-1.2.1-.1-1.8c2.8-.5 5.3-.8 7.4-.8 2.1 0 3.6.5 4.6 1.5.7.9 1.2 2.4 1.2 4.5"/><path id="XMLID_61_" class="st0" d="M142.4 111.7h7.4c3.9 0 5.8-2.3 5.8-6.8 0-2.2-.5-3.8-1.4-4.8-.9-1-2.4-1.5-4.4-1.5h-7.4v13.1zm7.3 2.1h-7.4v9.3H140V96.4h9.7c2.8 0 4.9.7 6.3 2.1s2 3.5 2 6.4c0 5.9-2.8 8.9-8.3 8.9"/><path id="XMLID_60_" class="st0" d="M174.4 103.9h2.3v19.2h-2.3v-1.4c-2 1.2-3.9 1.8-5.9 1.8-2.6 0-4.3-.7-5.2-2-.8-1.3-1.2-3.8-1.2-7.5v-10h2.3v10c0 3 .3 5 .8 6s1.7 1.5 3.6 1.5c.9 0 1.8-.1 2.8-.4.9-.3 1.7-.5 2.1-.8l.7-.4v-16z"/><path id="XMLID_57_" class="st0" d="M184.6 121.2c1.8.2 3.2.2 4.3.2 1.1 0 2.1-.2 2.9-.5.9-.3 1.5-.8 2-1.6.5-.7.8-1.6.9-2.5.2-.9.2-2.2.2-3.7 0-2.7-.3-4.6-1-5.8-.7-1.2-1.9-1.8-3.7-1.8-.9 0-1.8.1-2.8.3-1 .2-1.7.4-2.3.7l-.8.3v14.4zm6-17.7c2.6 0 4.3.7 5.3 2.2 1 1.5 1.5 4 1.5 7.7 0 3.6-.6 6.2-1.9 7.7-1.3 1.5-3.6 2.3-7.1 2.3-1.4 0-3.1-.1-5.1-.3l-1-.1V95.4h2.3v9.5c2-.9 4-1.4 6-1.4"/><path id="XMLID_54_" class="st0" d="M204.6 121.2c1.8.2 3.2.2 4.3.2 1.1 0 2.1-.2 2.9-.5.9-.3 1.5-.8 2-1.6.5-.7.8-1.6.9-2.5.2-.9.2-2.2.2-3.7 0-2.7-.3-4.6-1-5.8-.7-1.2-1.9-1.8-3.7-1.8-.9 0-1.8.1-2.8.3-1 .2-1.7.4-2.3.7l-.8.3v14.4zm6-17.7c2.6 0 4.3.7 5.3 2.2 1 1.5 1.5 4 1.5 7.7 0 3.6-.6 6.2-1.9 7.7-1.3 1.5-3.6 2.3-7.1 2.3-1.4 0-3.1-.1-5.1-.3l-1-.1V95.4h2.3v9.5c2-.9 4-1.4 6-1.4"/><path id="XMLID_53_" class="st0" d="M222.5 95.4h2.3v27.7h-2.3z"/><path id="XMLID_50_" class="st0" d="M230.8 103.9h2.3v19.2h-2.3v-19.2zm0-7.7h2.3v2.9h-2.3v-2.9z"/><path id="XMLID_49_" class="st0" d="M245.9 103.5c1.1 0 2.5.1 4.1.4l.9.1-.1 2c-2-.3-3.5-.4-4.5-.4-2.3 0-3.8.6-4.7 1.7-.8 1.1-1.3 3.2-1.3 6.1 0 3 .4 5.1 1.1 6.2.8 1.2 2.4 1.8 4.8 1.8l4.6-.3.1 2c-2.3.3-4 .5-5.1.5-3 0-5.1-.8-6.2-2.3-1.1-1.5-1.7-4.1-1.7-7.8s.6-6.2 1.8-7.7c1.3-1.5 3.3-2.3 6.2-2.3"/><path id="XMLID_46_" class="st0" d="M256.7 113.4c0 3 .4 5.1 1.1 6.3.7 1.2 2.2 1.7 4.6 1.7 2.4 0 3.9-.6 4.6-1.8.7-1.2 1.1-3.3 1.1-6.3s-.4-5.1-1.2-6.2c-.8-1.1-2.3-1.7-4.5-1.7s-3.7.6-4.5 1.6c-.8 1.3-1.2 3.4-1.2 6.4m-2.4 0c0-3.6.6-6.2 1.8-7.7 1.2-1.5 3.3-2.3 6.2-2.3s5 .8 6.2 2.3c1.2 1.5 1.8 4.1 1.8 7.7 0 3.6-.6 6.2-1.7 7.7s-3.2 2.3-6.3 2.3c-3.1 0-5.2-.8-6.4-2.3-1-1.5-1.6-4-1.6-7.7"/><path id="XMLID_43_" class="st0" d="M5.3 167.1c.5.2 1.1.3 1.8.3.8 0 1.6-.1 2.6-.4 1-.3 1.8-.5 2.3-.8l.8-.4V152c-2-.3-3.6-.5-4.8-.5-2.2 0-3.7.7-4.5 2-.8 1.3-1.2 3.4-1.2 6.2 0 3.3.5 5.4 1.5 6.4.6.5 1 .8 1.5 1m9.9-25.7v27.7h-2.3v-1.4c-2 1.2-4.1 1.8-6.1 1.8-.9 0-1.8-.1-2.5-.3-.7-.2-1.4-.6-2.1-1.3C.7 166.5 0 164 0 160.2c0-3.8.6-6.5 1.8-8.2 1.2-1.7 3.3-2.5 6.2-2.5 1.1 0 2.7.2 4.8.5v-8.6h2.4z"/><path id="XMLID_40_" class="st0" d="M20.9 149.9h2.3v19.2h-2.3v-19.2zm0-7.7h2.3v2.9h-2.3v-2.9z"/><path id="XMLID_39_" class="st0" d="M37.8 142.4h2.4V169h-2.4z"/><path id="XMLID_36_" class="st0" d="M50.7 167.1c.5.2 1.1.3 1.8.3s1.6-.1 2.6-.4c1-.3 1.8-.5 2.3-.8l.8-.4V152c-2-.3-3.6-.5-4.8-.5-2.2 0-3.7.7-4.5 2-.8 1.3-1.2 3.4-1.2 6.2 0 3.3.5 5.4 1.5 6.4.5.5 1 .8 1.5 1m9.8-25.7v27.7h-2.3v-1.4c-2 1.2-4.1 1.8-6.1 1.8-.9 0-1.8-.1-2.5-.3-.7-.2-1.4-.6-2.1-1.3-1.5-1.3-2.2-3.9-2.2-7.6 0-3.8.6-6.5 1.8-8.2 1.2-1.7 3.3-2.5 6.2-2.5 1.1 0 2.7.2 4.8.5v-8.6h2.4z"/><path id="XMLID_33_" class="st0" d="M67.8 158.5h10.8c0-2.5-.4-4.3-1.2-5.4-.8-1.1-2.2-1.6-4-1.6-1.8 0-3.2.6-4.2 1.7s-1.4 2.9-1.4 5.3m11.1 8.6l1.1-.1.1 1.9c-2.9.4-5.3.5-7.3.5-2.8 0-4.7-.8-5.8-2.5-1.1-1.6-1.6-4.1-1.6-7.4 0-6.7 2.6-10 7.9-10 2.5 0 4.4.7 5.7 2.2 1.3 1.4 1.9 3.8 1.9 6.9l-.1 1.8h-13c0 2.4.4 4.1 1.2 5.2.8 1.1 2.2 1.7 4.1 1.7 2 .1 3.9 0 5.8-.2"/><path id="XMLID_32_" class="st0" d="M87.8 169.1h-2.3v-19.2h2.3v1.4c2.1-1.2 4.2-1.8 6.2-1.8 2.6 0 4.3.7 5.1 2 .9 1.4 1.3 3.8 1.3 7.4V169h-2.3v-10c0-2.9-.3-4.9-.8-6-.6-1-1.8-1.6-3.6-1.6-.9 0-1.8.1-2.8.4-1 .3-1.7.5-2.3.8l-.8.4v16.1z"/><path id="XMLID_31_" class="st0" d="M115.6 151.9h-6.4v9.5c0 2.5.2 4.1.5 4.9.4.8 1.2 1.1 2.5 1.1l3.5-.3.2 2c-1.7.3-3 .4-3.9.4-1.9 0-3.3-.5-4-1.4-.8-1-1.1-2.8-1.1-5.5V152H104v-2h2.8v-6h2.3v6h6.4v1.9z"/><path id="XMLID_28_" class="st0" d="M119.2 149.9h2.3v19.2h-2.3v-19.2zm0-7.7h2.3v2.9h-2.3v-2.9z"/><path id="XMLID_27_" class="st0" d="M136.9 151.9h-6.4v9.5c0 2.5.2 4.1.5 4.9.4.8 1.2 1.1 2.5 1.1l3.5-.3.2 2c-1.7.3-3 .4-3.9.4-1.9 0-3.3-.5-4-1.4-.8-1-1.1-2.8-1.1-5.5V152h-2.8v-2h2.8v-6h2.3v6h6.4v1.9z"/><path id="XMLID_23_" class="st0" d="M143.2 140.8l7.9 3.7-.7 1.6-8-3.3.8-2zm-1.6 22.8c0 2.6 1.1 3.9 3.2 3.9.9 0 1.9-.1 3-.3 1.1-.2 2-.4 2.6-.7l1-.3v-6.9l-6.2.7c-1.3.1-2.2.5-2.7 1.1-.6.4-.9 1.3-.9 2.5m12.1-8v10.3c.1.9.9 1.5 2.5 1.7l-.1 1.8c-2 0-3.4-.5-4.3-1.5-2.4 1-4.8 1.6-7.2 1.6-1.7 0-3-.5-3.9-1.5-.9-1-1.3-2.4-1.3-4.2 0-1.8.5-3.2 1.4-4.1.9-.9 2.3-1.4 4.3-1.6l6.5-.7v-1.8c0-1.4-.3-2.5-.9-3.1-.6-.6-1.5-.9-2.5-.9-1.6 0-3.8.2-6.4.5l-1.2.1-.1-1.8c2.8-.5 5.3-.8 7.4-.8 2.1 0 3.6.5 4.6 1.5.7.9 1.2 2.4 1.2 4.5"/><path id="XMLID_20_" class="st0" d="M185.2 155.4c0-7.2-2.3-10.8-7-10.8h-7.3V167h7.3c4.7-.1 7-3.9 7-11.6m-7 13.7h-9.7v-26.6h9.7c6.3 0 9.5 4.3 9.5 13 0 9-3.2 13.6-9.5 13.6"/><path id="XMLID_17_" class="st0" d="M192.8 149.9h2.3v19.2h-2.3v-19.2zm0-7.7h2.3v2.9h-2.3v-2.9z"/><path id="XMLID_13_" class="st0" d="M202.5 156c0 1.6.4 2.8 1.1 3.5.7.7 1.9 1 3.6 1s2.9-.3 3.6-1c.7-.7 1.1-1.8 1.1-3.5s-.4-2.9-1.1-3.5-1.9-1-3.6-1-2.9.4-3.6 1.1c-.7.6-1.1 1.8-1.1 3.4m-.2 16.1c0 1.5.4 2.6 1.1 3.2.8.6 2.2.9 4.4.9s3.8-.3 4.7-.9c.9-.6 1.4-1.7 1.4-3.1 0-1.5-.3-2.4-1-2.9-.7-.4-2-.7-3.9-.7l-4.3-.2c-.9.7-1.6 1.2-1.9 1.7-.4.5-.5 1.2-.5 2m14-.1c0 2.2-.7 3.7-2.1 4.7-1.4 1-3.6 1.5-6.5 1.5s-5-.4-6.1-1.3c-1.1-.8-1.7-2.4-1.7-4.6 0-1.1.2-1.9.7-2.6.5-.7 1.3-1.4 2.4-2.2-.6-.4-1-1.3-1-2.6 0-.4.3-1.2.9-2.4l.3-.6c-2.1-.9-3.1-2.8-3.1-5.8 0-4.3 2.3-6.5 6.9-6.5 1.3 0 2.5.1 3.4.4l.6.1 5.6-.1v2l-3.8-.1c.9.9 1.4 2.4 1.4 4.5s-.6 3.6-1.7 4.6c-1.2 1-3 1.4-5.5 1.4-.7 0-1.4-.1-2-.2-.5 1.3-.8 2-.8 2.4 0 .8.2 1.4.7 1.6.5.2 2 .3 4.5.3s4.2.4 5.3 1.1c1.1.7 1.6 2.2 1.6 4.4"/><path id="XMLID_10_" class="st0" d="M220.3 149.9h2.3v19.2h-2.3v-19.2zm0-7.7h2.3v2.9h-2.3v-2.9z"/><path id="XMLID_9_" class="st0" d="M238 151.9h-6.4v9.5c0 2.5.2 4.1.5 4.9.4.8 1.2 1.1 2.5 1.1l3.5-.3.2 2c-1.7.3-3 .4-3.9.4-1.9 0-3.3-.5-4-1.4-.8-1-1.1-2.8-1.1-5.5V152h-2.8v-2h2.8v-6h2.3v6h6.4v1.9z"/><path id="XMLID_6_" class="st0" d="M242.8 163.6c0 2.6 1.1 3.9 3.2 3.9.9 0 1.9-.1 3-.3 1.1-.2 2-.4 2.6-.7l1-.3v-6.9l-6.2.7c-1.3.1-2.2.5-2.7 1.1-.7.4-.9 1.3-.9 2.5m12-8v10.3c.1.9.9 1.5 2.5 1.7l-.1 1.8c-2 0-3.4-.5-4.3-1.5-2.4 1-4.8 1.6-7.2 1.6-1.7 0-3-.5-3.9-1.5-.9-1-1.3-2.4-1.3-4.2 0-1.8.5-3.2 1.4-4.1.9-.9 2.3-1.4 4.3-1.6l6.5-.7v-1.8c0-1.4-.3-2.5-.9-3.1-.6-.6-1.5-.9-2.5-.9-1.6 0-3.8.2-6.4.5l-1.2.1-.1-1.8c2.8-.5 5.3-.8 7.4-.8 2.1 0 3.6.5 4.6 1.5.7.9 1.2 2.4 1.2 4.5"/><path id="XMLID_5_" class="st0" d="M261 141.4h2.3v27.7H261z"/><path id="XMLID_2_" class="st0" d="M270.7 158.5h10.8c0-2.5-.4-4.3-1.2-5.4-.8-1.1-2.2-1.6-4-1.6-1.8 0-3.2.6-4.2 1.7-.9 1.1-1.4 2.9-1.4 5.3m11.2 8.6l1.1-.1.1 1.9c-2.9.4-5.3.5-7.3.5-2.8 0-4.7-.8-5.8-2.5-1.1-1.6-1.6-4.1-1.6-7.4 0-6.7 2.6-10 7.9-10 2.5 0 4.4.7 5.7 2.2 1.3 1.4 1.9 3.8 1.9 6.9l-.1 1.8h-13c0 2.4.4 4.1 1.2 5.2.8 1.1 2.2 1.7 4.1 1.7 1.9.1 3.9 0 5.8-.2"/></svg>